<?xml version="1.0" standalone="no"?>
<!DOCTYPE svg PUBLIC "-//W3C//DTD SVG 20010904//EN"
 "http://www.w3.org/TR/2001/REC-SVG-20010904/DTD/svg10.dtd">
<svg version="1.0" xmlns="http://www.w3.org/2000/svg"
 width="500.000000pt" height="500.000000pt" viewBox="0 0 500.000000 500.000000"
 preserveAspectRatio="xMidYMid meet">
<metadata>
Created by potrace 1.16, written by Peter Selinger 2001-2019
</metadata>
<g transform="translate(0.000000,500.000000) scale(0.100000,-0.100000)"
fill="#000000" stroke="none">
<path d="M0 2500 l0 -2500 2500 0 2500 0 0 2500 0 2500 -2500 0 -2500 0 0
-2500z m2836 707 c20 -24 24 -39 24 -98 l0 -69 28 0 c35 0 69 -34 78 -78 6
-31 8 -32 55 -32 36 0 54 -5 69 -20 19 -19 20 -33 20 -469 l0 -448 -23 -34
c-42 -63 -68 -69 -290 -69 l-198 0 3 43 3 42 195 3 c183 2 195 4 217 24 l23
21 0 419 0 418 -35 0 -35 0 0 -375 c0 -318 -2 -381 -15 -405 l-16 -30 -169 0
-170 0 0 75 0 75 -40 0 -40 0 0 -215 c0 -118 -2 -215 -5 -215 -2 0 -32 15 -67
34 l-61 35 -61 -32 c-34 -18 -64 -33 -68 -35 -5 -2 -8 55 -8 126 l0 130 -65 4
c-50 3 -70 9 -90 28 -32 30 -34 84 -3 117 l21 23 -45 0 c-37 0 -52 -6 -77 -29
-26 -24 -31 -37 -31 -75 0 -51 15 -91 39 -102 9 -5 52 -10 96 -13 l80 -6 3
-42 3 -43 -86 0 c-103 0 -145 16 -181 69 l-24 36 0 523 c0 512 0 524 21 565
39 78 107 131 189 148 19 4 187 6 373 6 l339 -2 24 -28z"/>
<path d="M2062 3139 c-26 -13 -55 -39 -70 -62 l-27 -41 -3 -388 c-1 -213 -1
-388 1 -388 3 0 21 7 40 15 30 12 97 15 377 15 338 0 372 3 392 34 4 6 8 197
8 424 l0 412 -337 0 c-325 0 -340 -1 -381 -21z m648 -419 l0 -370 -95 0 -95 0
2 212 3 212 25 6 c16 4 26 14 28 28 4 25 3 26 -32 12 l-26 -10 0 140 0 140 95
0 95 0 0 -370z m-240 129 c0 -104 -3 -129 -12 -122 -7 6 -23 13 -36 16 -20 5
-23 2 -20 -21 2 -22 9 -28 36 -30 l32 -3 0 -170 0 -169 -100 0 -100 0 0 105 0
105 28 6 c47 10 52 13 52 30 0 13 -7 15 -40 9 l-40 -7 0 191 0 191 100 0 100
0 0 -131z m-242 -171 l3 -157 -31 9 c-27 8 -30 6 -30 -15 0 -17 8 -26 30 -34
29 -10 30 -12 30 -70 l0 -61 -101 0 -100 0 3 209 c3 192 5 211 23 231 29 33
74 50 125 47 l45 -2 3 -157z"/>
</g>
</svg>
